<mxfile host="app.diagrams.net" modified="2023-05-17T13:00:17.596Z" agent="Mozilla/5.0 (X11; Linux x86_64) AppleWebKit/537.36 (KHTML, like Gecko) Chrome/94.0.4606.81 Safari/537.36" etag="UMdd0FuT1E9L3z2jVdRP" version="21.3.2" type="github">
  <diagram name="Page-1" id="_9FZNuneBYfsGhKXNMQZ">
    <mxGraphModel dx="794" dy="496" grid="1" gridSize="10" guides="1" tooltips="1" connect="1" arrows="1" fold="1" page="1" pageScale="1" pageWidth="850" pageHeight="1100" math="0" shadow="0">
      <root>
        <mxCell id="0" />
        <mxCell id="1" parent="0" />
        <mxCell id="N7MYzpdtoY9fWSjdfMmn-1" value="" style="rounded=0;whiteSpace=wrap;html=1;" vertex="1" parent="1">
          <mxGeometry x="230" y="120" width="120" height="60" as="geometry" />
        </mxCell>
        <mxCell id="N7MYzpdtoY9fWSjdfMmn-2" value="" style="whiteSpace=wrap;html=1;aspect=fixed;fillColor=#EDFF78;" vertex="1" parent="1">
          <mxGeometry x="270" y="180" width="80" height="80" as="geometry" />
        </mxCell>
      </root>
    </mxGraphModel>
  </diagram>
</mxfile>
